<mxfile host="Electron" agent="Mozilla/5.0 (Macintosh; Intel Mac OS X 10_15_7) AppleWebKit/537.36 (KHTML, like Gecko) draw.io/24.7.17 Chrome/128.0.6613.36 Electron/32.0.1 Safari/537.36" version="24.7.17">
  <diagram name="Page-1" id="9lbCPC_0ziNbkuC87Svl">
    <mxGraphModel dx="891" dy="674" grid="1" gridSize="10" guides="1" tooltips="1" connect="1" arrows="1" fold="1" page="1" pageScale="1" pageWidth="827" pageHeight="1169" math="0" shadow="0">
      <root>
        <mxCell id="0" />
        <mxCell id="1" parent="0" />
        <mxCell id="8tdzM-dFQOlXanSijI_s-6" style="edgeStyle=none;rounded=0;orthogonalLoop=1;jettySize=auto;html=1;exitX=1;exitY=0.3333333333333333;exitDx=0;exitDy=0;exitPerimeter=0;entryX=0;entryY=0.5;entryDx=0;entryDy=0;" parent="1" source="lgveZW18jblFSIelw5Wt-1" target="lgveZW18jblFSIelw5Wt-6" edge="1">
          <mxGeometry relative="1" as="geometry" />
        </mxCell>
        <mxCell id="8tdzM-dFQOlXanSijI_s-7" style="edgeStyle=none;rounded=0;orthogonalLoop=1;jettySize=auto;html=1;exitX=1;exitY=0.3333333333333333;exitDx=0;exitDy=0;exitPerimeter=0;entryX=0;entryY=0.5;entryDx=0;entryDy=0;" parent="1" source="lgveZW18jblFSIelw5Wt-1" target="lgveZW18jblFSIelw5Wt-8" edge="1">
          <mxGeometry relative="1" as="geometry" />
        </mxCell>
        <mxCell id="8tdzM-dFQOlXanSijI_s-8" style="edgeStyle=none;rounded=0;orthogonalLoop=1;jettySize=auto;html=1;exitX=1;exitY=0.3333333333333333;exitDx=0;exitDy=0;exitPerimeter=0;entryX=0;entryY=0.5;entryDx=0;entryDy=0;" parent="1" source="lgveZW18jblFSIelw5Wt-1" target="lgveZW18jblFSIelw5Wt-21" edge="1">
          <mxGeometry relative="1" as="geometry" />
        </mxCell>
        <mxCell id="lgveZW18jblFSIelw5Wt-1" value="Гость" style="shape=umlActor;verticalLabelPosition=bottom;verticalAlign=top;html=1;outlineConnect=0;" parent="1" vertex="1">
          <mxGeometry x="24" y="350" width="30" height="60" as="geometry" />
        </mxCell>
        <mxCell id="8tdzM-dFQOlXanSijI_s-10" style="edgeStyle=none;rounded=0;orthogonalLoop=1;jettySize=auto;html=1;exitX=0;exitY=0.3333333333333333;exitDx=0;exitDy=0;exitPerimeter=0;entryX=1;entryY=0.5;entryDx=0;entryDy=0;" parent="1" source="lgveZW18jblFSIelw5Wt-2" target="lgveZW18jblFSIelw5Wt-16" edge="1">
          <mxGeometry relative="1" as="geometry" />
        </mxCell>
        <mxCell id="8tdzM-dFQOlXanSijI_s-12" style="edgeStyle=none;rounded=0;orthogonalLoop=1;jettySize=auto;html=1;exitX=0;exitY=0.3333333333333333;exitDx=0;exitDy=0;exitPerimeter=0;entryX=1;entryY=0.5;entryDx=0;entryDy=0;" parent="1" source="lgveZW18jblFSIelw5Wt-2" target="lgveZW18jblFSIelw5Wt-15" edge="1">
          <mxGeometry relative="1" as="geometry" />
        </mxCell>
        <mxCell id="8tdzM-dFQOlXanSijI_s-14" style="edgeStyle=none;rounded=0;orthogonalLoop=1;jettySize=auto;html=1;exitX=0;exitY=0.3333333333333333;exitDx=0;exitDy=0;exitPerimeter=0;entryX=1;entryY=0.5;entryDx=0;entryDy=0;" parent="1" source="lgveZW18jblFSIelw5Wt-2" target="lgveZW18jblFSIelw5Wt-20" edge="1">
          <mxGeometry relative="1" as="geometry" />
        </mxCell>
        <mxCell id="8tdzM-dFQOlXanSijI_s-15" style="edgeStyle=none;rounded=0;orthogonalLoop=1;jettySize=auto;html=1;exitX=0;exitY=0.3333333333333333;exitDx=0;exitDy=0;exitPerimeter=0;entryX=1;entryY=0.5;entryDx=0;entryDy=0;" parent="1" source="lgveZW18jblFSIelw5Wt-2" target="lgveZW18jblFSIelw5Wt-13" edge="1">
          <mxGeometry relative="1" as="geometry" />
        </mxCell>
        <mxCell id="8tdzM-dFQOlXanSijI_s-16" style="edgeStyle=none;rounded=0;orthogonalLoop=1;jettySize=auto;html=1;exitX=0;exitY=0.3333333333333333;exitDx=0;exitDy=0;exitPerimeter=0;entryX=1;entryY=0.5;entryDx=0;entryDy=0;" parent="1" source="lgveZW18jblFSIelw5Wt-2" target="lgveZW18jblFSIelw5Wt-12" edge="1">
          <mxGeometry relative="1" as="geometry" />
        </mxCell>
        <mxCell id="8tdzM-dFQOlXanSijI_s-17" style="edgeStyle=none;rounded=0;orthogonalLoop=1;jettySize=auto;html=1;exitX=0;exitY=0.3333333333333333;exitDx=0;exitDy=0;exitPerimeter=0;entryX=1;entryY=0.5;entryDx=0;entryDy=0;" parent="1" source="lgveZW18jblFSIelw5Wt-2" target="lgveZW18jblFSIelw5Wt-23" edge="1">
          <mxGeometry relative="1" as="geometry" />
        </mxCell>
        <mxCell id="8tdzM-dFQOlXanSijI_s-20" style="edgeStyle=none;rounded=0;orthogonalLoop=1;jettySize=auto;html=1;exitX=1;exitY=0.3333333333333333;exitDx=0;exitDy=0;exitPerimeter=0;entryX=0;entryY=0.5;entryDx=0;entryDy=0;" parent="1" source="lgveZW18jblFSIelw5Wt-2" target="8tdzM-dFQOlXanSijI_s-18" edge="1">
          <mxGeometry relative="1" as="geometry" />
        </mxCell>
        <mxCell id="8tdzM-dFQOlXanSijI_s-21" style="edgeStyle=none;rounded=0;orthogonalLoop=1;jettySize=auto;html=1;exitX=1;exitY=0.3333333333333333;exitDx=0;exitDy=0;exitPerimeter=0;entryX=0;entryY=0.5;entryDx=0;entryDy=0;" parent="1" source="lgveZW18jblFSIelw5Wt-2" target="lgveZW18jblFSIelw5Wt-18" edge="1">
          <mxGeometry relative="1" as="geometry" />
        </mxCell>
        <mxCell id="8tdzM-dFQOlXanSijI_s-22" style="edgeStyle=none;rounded=0;orthogonalLoop=1;jettySize=auto;html=1;exitX=1;exitY=0.3333333333333333;exitDx=0;exitDy=0;exitPerimeter=0;entryX=0;entryY=0.5;entryDx=0;entryDy=0;" parent="1" source="lgveZW18jblFSIelw5Wt-2" target="lgveZW18jblFSIelw5Wt-19" edge="1">
          <mxGeometry relative="1" as="geometry" />
        </mxCell>
        <mxCell id="8tdzM-dFQOlXanSijI_s-23" style="edgeStyle=none;rounded=0;orthogonalLoop=1;jettySize=auto;html=1;exitX=1;exitY=0.3333333333333333;exitDx=0;exitDy=0;exitPerimeter=0;entryX=0;entryY=0.5;entryDx=0;entryDy=0;" parent="1" source="lgveZW18jblFSIelw5Wt-2" target="lgveZW18jblFSIelw5Wt-24" edge="1">
          <mxGeometry relative="1" as="geometry" />
        </mxCell>
        <mxCell id="8tdzM-dFQOlXanSijI_s-27" style="edgeStyle=none;rounded=0;orthogonalLoop=1;jettySize=auto;html=1;exitX=1;exitY=0.3333333333333333;exitDx=0;exitDy=0;exitPerimeter=0;entryX=0;entryY=0.5;entryDx=0;entryDy=0;" parent="1" source="lgveZW18jblFSIelw5Wt-2" target="8tdzM-dFQOlXanSijI_s-26" edge="1">
          <mxGeometry relative="1" as="geometry" />
        </mxCell>
        <mxCell id="8tdzM-dFQOlXanSijI_s-51" style="edgeStyle=none;rounded=0;orthogonalLoop=1;jettySize=auto;html=1;exitX=0;exitY=0.3333333333333333;exitDx=0;exitDy=0;exitPerimeter=0;entryX=1;entryY=0.5;entryDx=0;entryDy=0;" parent="1" source="lgveZW18jblFSIelw5Wt-2" target="8tdzM-dFQOlXanSijI_s-50" edge="1">
          <mxGeometry relative="1" as="geometry" />
        </mxCell>
        <mxCell id="8tdzM-dFQOlXanSijI_s-53" style="edgeStyle=none;rounded=0;orthogonalLoop=1;jettySize=auto;html=1;exitX=1;exitY=0.3333333333333333;exitDx=0;exitDy=0;exitPerimeter=0;entryX=0;entryY=0.5;entryDx=0;entryDy=0;" parent="1" source="lgveZW18jblFSIelw5Wt-2" target="8tdzM-dFQOlXanSijI_s-52" edge="1">
          <mxGeometry relative="1" as="geometry" />
        </mxCell>
        <mxCell id="lgveZW18jblFSIelw5Wt-2" value="Пользователь" style="shape=umlActor;verticalLabelPosition=bottom;verticalAlign=top;html=1;outlineConnect=0;" parent="1" vertex="1">
          <mxGeometry x="560" y="667" width="30" height="60" as="geometry" />
        </mxCell>
        <mxCell id="lgveZW18jblFSIelw5Wt-6" value="Регистрация" style="ellipse;whiteSpace=wrap;html=1;" parent="1" vertex="1">
          <mxGeometry x="114" y="280" width="120" height="70" as="geometry" />
        </mxCell>
        <mxCell id="lgveZW18jblFSIelw5Wt-8" value="Аутентификация" style="ellipse;whiteSpace=wrap;html=1;" parent="1" vertex="1">
          <mxGeometry x="114" y="360" width="120" height="70" as="geometry" />
        </mxCell>
        <mxCell id="lgveZW18jblFSIelw5Wt-12" value="Купить курс" style="ellipse;whiteSpace=wrap;html=1;" parent="1" vertex="1">
          <mxGeometry x="370" y="687" width="120" height="70" as="geometry" />
        </mxCell>
        <mxCell id="lgveZW18jblFSIelw5Wt-13" value="Пройти купленный курс" style="ellipse;whiteSpace=wrap;html=1;" parent="1" vertex="1">
          <mxGeometry x="370" y="613" width="120" height="70" as="geometry" />
        </mxCell>
        <mxCell id="lgveZW18jblFSIelw5Wt-15" value="Стать преподавателем курса" style="ellipse;whiteSpace=wrap;html=1;" parent="1" vertex="1">
          <mxGeometry x="370" y="461" width="120" height="70" as="geometry" />
        </mxCell>
        <mxCell id="lgveZW18jblFSIelw5Wt-16" value="Создать школу" style="ellipse;whiteSpace=wrap;html=1;" parent="1" vertex="1">
          <mxGeometry x="370" y="384" width="120" height="70" as="geometry" />
        </mxCell>
        <mxCell id="lgveZW18jblFSIelw5Wt-18" value="Составить собственный курс" style="ellipse;whiteSpace=wrap;html=1;" parent="1" vertex="1">
          <mxGeometry x="640" y="461" width="120" height="70" as="geometry" />
        </mxCell>
        <mxCell id="lgveZW18jblFSIelw5Wt-19" value="Редактировать собственные курсы" style="ellipse;whiteSpace=wrap;html=1;" parent="1" vertex="1">
          <mxGeometry x="640" y="537" width="120" height="70" as="geometry" />
        </mxCell>
        <mxCell id="lgveZW18jblFSIelw5Wt-20" value="Изменить пользовательские данные" style="ellipse;whiteSpace=wrap;html=1;" parent="1" vertex="1">
          <mxGeometry x="370" y="538" width="120" height="70" as="geometry" />
        </mxCell>
        <mxCell id="lgveZW18jblFSIelw5Wt-21" value="Просматривать курсы" style="ellipse;whiteSpace=wrap;html=1;" parent="1" vertex="1">
          <mxGeometry x="114" y="440" width="120" height="70" as="geometry" />
        </mxCell>
        <mxCell id="lgveZW18jblFSIelw5Wt-23" value="Просматривать купленные курсы" style="ellipse;whiteSpace=wrap;html=1;" parent="1" vertex="1">
          <mxGeometry x="370" y="762" width="120" height="70" as="geometry" />
        </mxCell>
        <mxCell id="lgveZW18jblFSIelw5Wt-24" value="Просматривать статистику прохождения купленного курса" style="ellipse;whiteSpace=wrap;html=1;" parent="1" vertex="1">
          <mxGeometry x="630.5" y="612" width="139" height="80" as="geometry" />
        </mxCell>
        <mxCell id="8tdzM-dFQOlXanSijI_s-18" value="Стать преподавателем школы" style="ellipse;whiteSpace=wrap;html=1;" parent="1" vertex="1">
          <mxGeometry x="640" y="387" width="120" height="70" as="geometry" />
        </mxCell>
        <mxCell id="8tdzM-dFQOlXanSijI_s-24" value="Просматривать курсы" style="ellipse;whiteSpace=wrap;html=1;direction=west;" parent="1" vertex="1">
          <mxGeometry x="114" y="590" width="120" height="70" as="geometry" />
        </mxCell>
        <mxCell id="8tdzM-dFQOlXanSijI_s-25" value="Удалять курсы" style="ellipse;whiteSpace=wrap;html=1;direction=west;" parent="1" vertex="1">
          <mxGeometry x="114" y="666" width="120" height="70" as="geometry" />
        </mxCell>
        <mxCell id="8tdzM-dFQOlXanSijI_s-26" value="Удалять собственные курсы" style="ellipse;whiteSpace=wrap;html=1;" parent="1" vertex="1">
          <mxGeometry x="640" y="697" width="120" height="70" as="geometry" />
        </mxCell>
        <mxCell id="8tdzM-dFQOlXanSijI_s-28" value="Просматривать пользователей" style="ellipse;whiteSpace=wrap;html=1;direction=west;" parent="1" vertex="1">
          <mxGeometry x="114" y="742" width="120" height="70" as="geometry" />
        </mxCell>
        <mxCell id="8tdzM-dFQOlXanSijI_s-29" value="Удалять пользователей" style="ellipse;whiteSpace=wrap;html=1;direction=west;" parent="1" vertex="1">
          <mxGeometry x="114" y="816" width="120" height="70" as="geometry" />
        </mxCell>
        <mxCell id="8tdzM-dFQOlXanSijI_s-30" value="Просматривать школы" style="ellipse;whiteSpace=wrap;html=1;direction=west;" parent="1" vertex="1">
          <mxGeometry x="114" y="892" width="120" height="70" as="geometry" />
        </mxCell>
        <mxCell id="8tdzM-dFQOlXanSijI_s-31" value="Удалять школы" style="ellipse;whiteSpace=wrap;html=1;direction=west;" parent="1" vertex="1">
          <mxGeometry x="114" y="967" width="120" height="70" as="geometry" />
        </mxCell>
        <mxCell id="8tdzM-dFQOlXanSijI_s-42" style="edgeStyle=none;rounded=0;orthogonalLoop=1;jettySize=auto;html=1;exitX=1;exitY=0.3333333333333333;exitDx=0;exitDy=0;exitPerimeter=0;entryX=1;entryY=0.5;entryDx=0;entryDy=0;" parent="1" source="8tdzM-dFQOlXanSijI_s-39" target="8tdzM-dFQOlXanSijI_s-24" edge="1">
          <mxGeometry relative="1" as="geometry" />
        </mxCell>
        <mxCell id="8tdzM-dFQOlXanSijI_s-43" style="edgeStyle=none;rounded=0;orthogonalLoop=1;jettySize=auto;html=1;exitX=1;exitY=0.3333333333333333;exitDx=0;exitDy=0;exitPerimeter=0;entryX=1;entryY=0.5;entryDx=0;entryDy=0;" parent="1" source="8tdzM-dFQOlXanSijI_s-39" target="8tdzM-dFQOlXanSijI_s-25" edge="1">
          <mxGeometry relative="1" as="geometry" />
        </mxCell>
        <mxCell id="8tdzM-dFQOlXanSijI_s-44" style="edgeStyle=none;rounded=0;orthogonalLoop=1;jettySize=auto;html=1;exitX=1;exitY=0.3333333333333333;exitDx=0;exitDy=0;exitPerimeter=0;entryX=1;entryY=0.5;entryDx=0;entryDy=0;" parent="1" source="8tdzM-dFQOlXanSijI_s-39" target="8tdzM-dFQOlXanSijI_s-28" edge="1">
          <mxGeometry relative="1" as="geometry" />
        </mxCell>
        <mxCell id="8tdzM-dFQOlXanSijI_s-45" style="edgeStyle=none;rounded=0;orthogonalLoop=1;jettySize=auto;html=1;exitX=1;exitY=0.3333333333333333;exitDx=0;exitDy=0;exitPerimeter=0;entryX=1;entryY=0.5;entryDx=0;entryDy=0;" parent="1" source="8tdzM-dFQOlXanSijI_s-39" target="8tdzM-dFQOlXanSijI_s-29" edge="1">
          <mxGeometry relative="1" as="geometry" />
        </mxCell>
        <mxCell id="8tdzM-dFQOlXanSijI_s-46" style="edgeStyle=none;rounded=0;orthogonalLoop=1;jettySize=auto;html=1;exitX=1;exitY=0.3333333333333333;exitDx=0;exitDy=0;exitPerimeter=0;entryX=1;entryY=0.5;entryDx=0;entryDy=0;" parent="1" source="8tdzM-dFQOlXanSijI_s-39" target="8tdzM-dFQOlXanSijI_s-30" edge="1">
          <mxGeometry relative="1" as="geometry" />
        </mxCell>
        <mxCell id="8tdzM-dFQOlXanSijI_s-47" style="edgeStyle=none;rounded=0;orthogonalLoop=1;jettySize=auto;html=1;exitX=1;exitY=0.3333333333333333;exitDx=0;exitDy=0;exitPerimeter=0;entryX=1;entryY=0.5;entryDx=0;entryDy=0;" parent="1" source="8tdzM-dFQOlXanSijI_s-39" target="8tdzM-dFQOlXanSijI_s-31" edge="1">
          <mxGeometry relative="1" as="geometry" />
        </mxCell>
        <mxCell id="8tdzM-dFQOlXanSijI_s-49" style="edgeStyle=none;rounded=0;orthogonalLoop=1;jettySize=auto;html=1;exitX=1;exitY=0.3333333333333333;exitDx=0;exitDy=0;exitPerimeter=0;entryX=1;entryY=0.5;entryDx=0;entryDy=0;" parent="1" source="8tdzM-dFQOlXanSijI_s-39" target="8tdzM-dFQOlXanSijI_s-48" edge="1">
          <mxGeometry relative="1" as="geometry" />
        </mxCell>
        <mxCell id="8tdzM-dFQOlXanSijI_s-39" value="Администратор" style="shape=umlActor;verticalLabelPosition=bottom;verticalAlign=top;html=1;outlineConnect=0;" parent="1" vertex="1">
          <mxGeometry x="30" y="756" width="30" height="60" as="geometry" />
        </mxCell>
        <mxCell id="8tdzM-dFQOlXanSijI_s-48" value="Удалять уроки" style="ellipse;whiteSpace=wrap;html=1;direction=west;" parent="1" vertex="1">
          <mxGeometry x="114" y="1043" width="120" height="70" as="geometry" />
        </mxCell>
        <mxCell id="8tdzM-dFQOlXanSijI_s-50" value="Аутентификация" style="ellipse;whiteSpace=wrap;html=1;" parent="1" vertex="1">
          <mxGeometry x="370" y="310" width="120" height="70" as="geometry" />
        </mxCell>
        <mxCell id="8tdzM-dFQOlXanSijI_s-52" value="Просматривать курсы" style="ellipse;whiteSpace=wrap;html=1;" parent="1" vertex="1">
          <mxGeometry x="640" y="310" width="120" height="70" as="geometry" />
        </mxCell>
      </root>
    </mxGraphModel>
  </diagram>
</mxfile>
